<svg width="760" height="310" viewBox="0 0 760 310" fill="none" xmlns="http://www.w3.org/2000/svg" role="img" aria-labelledby="title desc">
  <title id="title">LeetCode progress</title>
  <desc id="desc">Solved problem counts by difficulty and language.</desc>
  <rect width="760" height="310" rx="22" fill="#202020"/>
  <rect x="1" y="1" width="758" height="308" rx="21" stroke="#3f3f46"/>
  <text x="28" y="42" fill="#a3a3a3" font-family="Segoe UI, Arial, sans-serif" font-size="18" font-weight="600">Total Solved</text>
  <text x="28" y="86" fill="#0ea5e9" font-family="Segoe UI, Arial, sans-serif" font-size="42" font-weight="700">24</text>
  <text x="100" y="82" fill="#38bdf8" font-family="Segoe UI, Arial, sans-serif" font-size="16" font-weight="400">Problems</text>
  <rect x="28" y="112" width="104" height="38" rx="10" fill="#3a3a3a"/>
  <text x="44" y="137" fill="#22c55e" font-family="Segoe UI, Arial, sans-serif" font-size="14" font-weight="700">Easy</text>
  <text x="102" y="137" fill="#f4f4f5" font-family="Segoe UI, Arial, sans-serif" font-size="15" font-weight="700">11</text>
  <rect x="152" y="112" width="104" height="38" rx="10" fill="#3a3a3a"/>
  <text x="168" y="137" fill="#f59e0b" font-family="Segoe UI, Arial, sans-serif" font-size="14" font-weight="700">Med.</text>
  <text x="226" y="137" fill="#f4f4f5" font-family="Segoe UI, Arial, sans-serif" font-size="15" font-weight="700">11</text>
  <rect x="276" y="112" width="104" height="38" rx="10" fill="#3a3a3a"/>
  <text x="292" y="137" fill="#ef4444" font-family="Segoe UI, Arial, sans-serif" font-size="14" font-weight="700">Hard</text>
  <text x="350" y="137" fill="#f4f4f5" font-family="Segoe UI, Arial, sans-serif" font-size="15" font-weight="700">2</text>
  <text x="28" y="174" fill="#a3a3a3" font-family="Segoe UI, Arial, sans-serif" font-size="15" font-weight="600">Difficulty Mix</text>
  <rect x="28" y="182" width="420" height="16" rx="8" fill="#3f3f46"/>
  <rect x="28" y="182" width="192" height="16" rx="8" fill="#22c55e"/>
  <rect x="220" y="182" width="192" height="16" rx="8" fill="#f59e0b"/>
  <rect x="412" y="182" width="35" height="16" rx="8" fill="#ef4444"/>
  <text x="28" y="222" fill="#a3a3a3" font-family="Segoe UI, Arial, sans-serif" font-size="15" font-weight="600">Languages</text>
  <text x="28" y="243" fill="#e4e4e7" font-family="Segoe UI, Arial, sans-serif" font-size="14" font-weight="400">C#</text>
  <rect x="92" y="230" width="260" height="14" rx="7" fill="#3f3f46"/>
  <rect x="92" y="230" width="54" height="14" rx="7" fill="#8b5cf6"/>
  <text x="366" y="243" fill="#a3a3a3" font-family="Segoe UI, Arial, sans-serif" font-size="13" font-weight="400">5</text>
  <text x="28" y="269" fill="#e4e4e7" font-family="Segoe UI, Arial, sans-serif" font-size="14" font-weight="400">Java</text>
  <rect x="92" y="256" width="260" height="14" rx="7" fill="#3f3f46"/>
  <rect x="92" y="256" width="206" height="14" rx="7" fill="#8b5cf6"/>
  <text x="366" y="269" fill="#a3a3a3" font-family="Segoe UI, Arial, sans-serif" font-size="13" font-weight="400">19</text>
  <text x="500" y="42" fill="#a3a3a3" font-family="Segoe UI, Arial, sans-serif" font-size="15" font-weight="600">Problem Map</text>
  <circle cx="512" cy="82" r="23" fill="#3f3f46" stroke="#ef4444" stroke-width="2"/>
  <text x="512" y="86" text-anchor="middle" fill="#ef4444" font-family="Segoe UI, Arial, sans-serif" font-size="10" font-weight="700">84</text>
  <circle cx="566" cy="82" r="23" fill="#3f3f46" stroke="#f59e0b" stroke-width="2"/>
  <text x="566" y="86" text-anchor="middle" fill="#f59e0b" font-family="Segoe UI, Arial, sans-serif" font-size="10" font-weight="700">200</text>
  <circle cx="620" cy="82" r="23" fill="#3f3f46" stroke="#22c55e" stroke-width="2"/>
  <text x="620" y="86" text-anchor="middle" fill="#22c55e" font-family="Segoe UI, Arial, sans-serif" font-size="10" font-weight="700">231</text>
  <circle cx="674" cy="82" r="23" fill="#3f3f46" stroke="#22c55e" stroke-width="2"/>
  <text x="674" y="86" text-anchor="middle" fill="#22c55e" font-family="Segoe UI, Arial, sans-serif" font-size="10" font-weight="700">326</text>
  <circle cx="512" cy="138" r="23" fill="#3f3f46" stroke="#ef4444" stroke-width="2"/>
  <text x="512" y="142" text-anchor="middle" fill="#ef4444" font-family="Segoe UI, Arial, sans-serif" font-size="10" font-weight="700">679</text>
  <circle cx="566" cy="138" r="23" fill="#3f3f46" stroke="#f59e0b" stroke-width="2"/>
  <text x="566" y="142" text-anchor="middle" fill="#f59e0b" font-family="Segoe UI, Arial, sans-serif" font-size="10" font-weight="700">808</text>
  <circle cx="620" cy="138" r="23" fill="#3f3f46" stroke="#f59e0b" stroke-width="2"/>
  <text x="620" y="142" text-anchor="middle" fill="#f59e0b" font-family="Segoe UI, Arial, sans-serif" font-size="10" font-weight="700">874</text>
  <circle cx="674" cy="138" r="23" fill="#3f3f46" stroke="#f59e0b" stroke-width="2"/>
  <text x="674" y="142" text-anchor="middle" fill="#f59e0b" font-family="Segoe UI, Arial, sans-serif" font-size="10" font-weight="700">1277</text>
  <circle cx="512" cy="194" r="23" fill="#3f3f46" stroke="#22c55e" stroke-width="2"/>
  <text x="512" y="198" text-anchor="middle" fill="#22c55e" font-family="Segoe UI, Arial, sans-serif" font-size="10" font-weight="700">1700</text>
  <circle cx="566" cy="194" r="23" fill="#3f3f46" stroke="#f59e0b" stroke-width="2"/>
  <text x="566" y="198" text-anchor="middle" fill="#f59e0b" font-family="Segoe UI, Arial, sans-serif" font-size="10" font-weight="700">1726</text>
  <circle cx="620" cy="194" r="23" fill="#3f3f46" stroke="#22c55e" stroke-width="2"/>
  <text x="620" y="198" text-anchor="middle" fill="#22c55e" font-family="Segoe UI, Arial, sans-serif" font-size="10" font-weight="700">1790</text>
  <circle cx="674" cy="194" r="23" fill="#3f3f46" stroke="#22c55e" stroke-width="2"/>
  <text x="674" y="198" text-anchor="middle" fill="#22c55e" font-family="Segoe UI, Arial, sans-serif" font-size="10" font-weight="700">1800</text>
  <text x="28" y="292" fill="#71717a" font-family="Segoe UI, Arial, sans-serif" font-size="12" font-weight="400">Updated 2026-07-03 22:42</text>
</svg>